<svg xmlns="http://www.w3.org/2000/svg" viewBox="0 0 1024 1024"><defs><style>.cls-1{isolation:isolate}.cls-2,.cls-3{fill:#50239f}.cls-2,.cls-7{opacity:.08}.cls-4,.cls-6{fill:none;stroke-linecap:round;stroke-linejoin:round}.cls-4{stroke:#fff;stroke-width:12.73px}.cls-5,.cls-7{fill:#fff}.cls-6{stroke:#00e8cc;stroke-width:20.21px;stroke-dasharray:80.83 53.89}.cls-7{mix-blend-mode:lighten}</style></defs><title>add-account</title><g class="cls-1"><g id="Layer_1" data-name="Layer 1"><rect width="841.97" height="505.18" x="119.05" y="299.74" class="cls-2" rx="53.89" transform="translate(-146.76 198.74) rotate(-18.4)"/><rect width="841.97" height="505.18" x="62.97" y="219.08" class="cls-3" rx="53.89" transform="matrix(0.95, -0.32, 0.32, 0.95, -124.16, 176.91)"/><path d="M98,491.8a104.41,104.41,0,1,1,131.38,67.39A104.41,104.41,0,0,1,98,491.8" class="cls-4"/><polygon points="135.9 410.25 144.67 437.48 171.9 428.71 180.61 455.77 207.84 447.01 199.12 419.94 226.35 411.18 217.59 383.95 135.9 410.25" class="cls-5"/><polygon points="134.88 500.41 162.1 491.64 179.33 545.14 206.56 536.38 180.62 455.79 153.38 464.56 144.67 437.48 117.44 446.24 134.88 500.41" class="cls-5"/><polygon points="226.35 411.18 235.07 438.26 207.84 447.03 233.78 527.61 261.01 518.85 243.79 465.34 271.02 456.58 253.59 402.41 226.35 411.18" class="cls-5"/><rect width="85.82" height="56.21" x="159.93" y="450.06" class="cls-5" transform="translate(-136.77 85.16) rotate(-17.84)"/><line x1="387.89" x2="617.7" y1="352.1" y2="278.12" class="cls-4"/><line x1="402.83" x2="632.63" y1="398.48" y2="324.5" class="cls-4"/><line x1="417.24" x2="574.39" y1="441.71" y2="391.12" class="cls-4"/><line x1="176.79" x2="872.91" y1="706.92" y2="482.83" class="cls-6"/><path d="M55.89,347.89,752.54,116.1a53.88,53.88,0,0,1,68.14,34.12L946.15,527.3A53.9,53.9,0,0,1,912,595.45" class="cls-7"/></g></g></svg>