<svg xmlns="http://www.w3.org/2000/svg" xmlns:xlink="http://www.w3.org/1999/xlink" viewBox="0 0 512 512"><defs><style>.cls-1,.cls-15,.cls-8{fill:#fff}.cls-2{opacity:.06}.cls-10,.cls-11,.cls-13,.cls-16,.cls-17,.cls-3,.cls-6,.cls-9{fill:none}.cls-10,.cls-11,.cls-17,.cls-3{stroke:#50239f}.cls-11,.cls-16,.cls-3,.cls-9{stroke-miterlimit:10}.cls-3{stroke-width:1.7px}.cls-4{clip-path:url(#clip-path)}.cls-5{fill:#50239f}.cls-13,.cls-16,.cls-6,.cls-9{stroke:#fff}.cls-10,.cls-13,.cls-14,.cls-17,.cls-6,.cls-7{stroke-linecap:round}.cls-10,.cls-13,.cls-14,.cls-15,.cls-17,.cls-6,.cls-7,.cls-8{stroke-linejoin:round}.cls-6{stroke-width:1.21px}.cls-14,.cls-7{fill:#00e8cc}.cls-14,.cls-15,.cls-7,.cls-8{stroke:#2f54a1}.cls-7,.cls-8{stroke-width:1.24px}.cls-9{stroke-width:.6px}.cls-10{stroke-width:1.7px}.cls-11{stroke-width:2.9px}.cls-12{clip-path:url(#clip-path-2)}.cls-13{stroke-width:2.06px}.cls-14,.cls-15{stroke-width:2.12px}.cls-16{stroke-width:1.02px}.cls-17{stroke-width:2.9px}</style><clipPath id="clip-path"><path id="_Clipping_Path_" d="M307.46,119.22H192.93a11.35,11.35,0,0,0-11.35,11.35v238a6.88,6.88,0,0,0,6.88,6.88H311.93a6.88,6.88,0,0,0,6.88-6.88v-238A11.35,11.35,0,0,0,307.46,119.22Z" class="cls-1" data-name="&lt;Clipping Path&gt;"/></clipPath><clipPath id="clip-path-2"><path id="_Clipping_Path_2" d="M343.7,22.9H148.51a19.35,19.35,0,0,0-19.35,19.35V447.83a11.73,11.73,0,0,0,11.73,11.73H351.32a11.73,11.73,0,0,0,11.73-11.73V42.25A19.35,19.35,0,0,0,343.7,22.9Z" class="cls-1" data-name="&lt;Clipping Path&gt;"/></clipPath></defs><title>AirGap_Onboarding_Vault</title><g id="Layer_11" data-name="Layer 11"><path id="_Path_" d="M317.75,124.19H201.1a14.17,14.17,0,0,0-14.17,14.17V385.55a11.28,11.28,0,0,0,11.28,11.28H320.63a14.06,14.06,0,0,0,14.06-14.06V141.14A17,17,0,0,0,317.75,124.19Z" class="cls-2" data-name="&lt;Path&gt;"/><path id="_Clipping_Path_3" d="M308.12,115.17H191.47a14.17,14.17,0,0,0-14.17,14.17V376.53a11.28,11.28,0,0,0,11.28,11.28H311a14.06,14.06,0,0,0,14.06-14.06V132.12A17,17,0,0,0,308.12,115.17Z" class="cls-1" data-name="&lt;Clipping Path&gt;"/><path id="_Clipping_Path_4" d="M308.12,115.17H191.47a14.17,14.17,0,0,0-14.17,14.17V376.53a11.28,11.28,0,0,0,11.28,11.28H311a14.06,14.06,0,0,0,14.06-14.06V132.12A17,17,0,0,0,308.12,115.17Z" class="cls-3" data-name="&lt;Clipping Path&gt;"/><path id="_Clipping_Path_5" d="M307.46,119.22H192.93a11.35,11.35,0,0,0-11.35,11.35v238a6.88,6.88,0,0,0,6.88,6.88H311.93a6.88,6.88,0,0,0,6.88-6.88v-238A11.35,11.35,0,0,0,307.46,119.22Z" class="cls-1" data-name="&lt;Clipping Path&gt;"/><g class="cls-4"><rect width="167.65" height="277.08" x="170.63" y="104.17" class="cls-5"/></g><path id="_Path_2" d="M204.62,203.46a46.85,46.85,0,1,1,46.85,46.85,46.85,46.85,0,0,1-46.85-46.85" class="cls-6" data-name="&lt;Path&gt;"/><polygon points="232.03 173.85 232.03 186.68 244.86 186.68 244.86 199.44 257.7 199.44 257.7 186.68 270.53 186.68 270.53 173.85 232.03 173.85" class="cls-1"/><polygon points="219.19 212.21 232.03 212.21 232.03 237.43 244.86 237.43 244.86 199.44 232.03 199.44 232.03 186.68 219.19 186.68 219.19 212.21" class="cls-1"/><polygon points="270.53 186.68 270.53 199.44 257.7 199.44 257.7 237.43 270.53 237.43 270.53 212.21 283.37 212.21 283.37 186.68 270.53 186.68" class="cls-1"/><rect width="38.51" height="25.22" x="232.03" y="199.44" class="cls-1"/><line x1="233.29" x2="269.27" y1="124.97" y2="124.97" class="cls-7"/><line x1="208.19" x2="294.73" y1="293.65" y2="293.65" class="cls-6"/><line x1="208.19" x2="294.73" y1="305.34" y2="305.34" class="cls-6"/><line x1="208.19" x2="251.46" y1="317.03" y2="317.03" class="cls-6"/><circle cx="194.81" cy="128.33" r="3.37" class="cls-8"/><line x1="259.5" x2="243.05" y1="381.25" y2="381.25" class="cls-9"/><line x1="325.62" x2="325.62" y1="146.14" y2="163.61" class="cls-10"/><line x1="325.62" x2="325.62" y1="167.72" y2="185.19" class="cls-10"/><path id="_Path_3" d="M361.23,31.37H162.43a24.14,24.14,0,0,0-24.14,24.14V476.78A19.22,19.22,0,0,0,157.51,496H366.15a24,24,0,0,0,24-24V60.26A28.89,28.89,0,0,0,361.23,31.37Z" class="cls-2" data-name="&lt;Path&gt;"/><path id="_Clipping_Path_6" d="M344.82,16H146a24.14,24.14,0,0,0-24.14,24.14V461.41a19.22,19.22,0,0,0,19.22,19.22H349.74a24,24,0,0,0,24-24V44.89A28.89,28.89,0,0,0,344.82,16Z" class="cls-1" data-name="&lt;Clipping Path&gt;"/><path id="_Clipping_Path_7" d="M344.82,16H146a24.14,24.14,0,0,0-24.14,24.14V461.41a19.22,19.22,0,0,0,19.22,19.22H349.74a24,24,0,0,0,24-24V44.89A28.89,28.89,0,0,0,344.82,16Z" class="cls-11" data-name="&lt;Clipping Path&gt;"/><path id="_Clipping_Path_8" d="M343.7,22.9H148.51a19.35,19.35,0,0,0-19.35,19.35V447.83a11.73,11.73,0,0,0,11.73,11.73H351.32a11.73,11.73,0,0,0,11.73-11.73V42.25A19.35,19.35,0,0,0,343.7,22.9Z" class="cls-1" data-name="&lt;Clipping Path&gt;"/><g class="cls-12"><rect width="285.71" height="472.2" x="110.51" y="-2.75" class="cls-5"/></g><path id="_Path_4" d="M168.43,166.46a79.83,79.83,0,1,1,79.83,79.83,79.84,79.84,0,0,1-79.83-79.83" class="cls-13" data-name="&lt;Path&gt;"/><polygon points="215.15 115.99 215.15 137.86 237.02 137.86 237.02 159.6 258.89 159.6 258.89 137.86 280.77 137.86 280.77 115.99 215.15 115.99" class="cls-1"/><polygon points="193.28 181.37 215.15 181.37 215.15 224.35 237.02 224.35 237.02 159.62 215.15 159.62 215.15 137.86 193.28 137.86 193.28 181.37" class="cls-1"/><polygon points="280.77 137.86 280.77 159.62 258.89 159.62 258.89 224.35 280.77 224.35 280.77 181.37 302.64 181.37 302.64 137.86 280.77 137.86" class="cls-1"/><rect width="65.62" height="42.98" x="215.15" y="159.62" class="cls-1"/><line x1="217.3" x2="278.61" y1="32.69" y2="32.69" class="cls-14"/><line x1="174.53" x2="322" y1="320.16" y2="320.16" class="cls-13"/><line x1="174.53" x2="322" y1="340.09" y2="340.09" class="cls-13"/><line x1="174.53" x2="248.26" y1="360.01" y2="360.01" class="cls-13"/><circle cx="151.73" cy="38.43" r="5.74" class="cls-15"/><line x1="261.97" x2="233.93" y1="469.45" y2="469.45" class="cls-16"/><line x1="374.65" x2="374.65" y1="68.77" y2="98.55" class="cls-17"/><line x1="374.65" x2="374.65" y1="105.55" y2="135.33" class="cls-17"/></g></svg>