<svg xmlns="http://www.w3.org/2000/svg" xmlns:xlink="http://www.w3.org/1999/xlink" id="QR-scanner-guides" x="0" y="0" version="1.1" viewBox="0 0 271 236" style="enable-background:new 0 0 271 236" xml:space="preserve"><style type="text/css">.st0,.st1{fill:none}.st1{stroke:#00e8cc;stroke-width:2}.st2{fill:#fff;fill-opacity:.3}</style><g><line x1="11" x2="260" y1="111" y2="111" class="st0"/></g><g><path id="line" d="M11,111h249" class="st1"/></g><path id="top-left" d="M28,10h53.1c2.8,0,5-2.2,5-5s-2.2-5-5-5H23c-2.8,0-5,2.2-5,5v58c0,2.8,2.2,5,5,5s5-2.2,5-5V10z" class="st2"/><path id="bottom-left" d="M28,224.7v-53.1c0-2.8-2.2-5-5-5s-5,2.2-5,5v58.1c0,2.8,2.2,5,5,5h58c2.8,0,5-2.2,5-5	s-2.2-5-5-5L28,224.7L28,224.7z" class="st2"/><path id="top-right" d="M244,10v53.1c0,2.8,2.2,5,5,5s5-2.2,5-5V5c0-2.8-2.2-5-5-5h-58c-2.8,0-5,2.2-5,5s2.2,5,5,5H244z" class="st2"/><path id="bottom-right" d="M244.1,225.6H191c-2.8,0-5,2.2-5,5s2.2,5,5,5h58.1c2.8,0,5-2.2,5-5v-58c0-2.8-2.2-5-5-5	s-5,2.2-5,5V225.6z" class="st2"/></svg>