<svg xmlns="http://www.w3.org/2000/svg" xmlns:xlink="http://www.w3.org/1999/xlink" viewBox="0 0 512 512"><defs><style>.cls-1,.cls-11,.cls-25,.cls-79,.cls-83,.cls-86{fill:#50239f}.cls-2,.cls-29{fill:#00e8cc}.cls-17,.cls-22,.cls-3,.cls-30,.cls-31,.cls-32,.cls-35,.cls-75,.cls-76,.cls-8,.cls-80,.cls-81,.cls-84,.cls-85,.cls-87,.cls-92{fill:none}.cls-15,.cls-18,.cls-21,.cls-4,.cls-77{fill:#fff}.cls-30,.cls-31,.cls-32,.cls-4,.cls-75,.cls-76,.cls-79,.cls-80,.cls-84{stroke:#00e8cc}.cls-15,.cls-17,.cls-21,.cls-22,.cls-30,.cls-31,.cls-32,.cls-35,.cls-4,.cls-75,.cls-76,.cls-79,.cls-8,.cls-80,.cls-81,.cls-83,.cls-84,.cls-85,.cls-87,.cls-92{stroke-linecap:round}.cls-15,.cls-17,.cls-21,.cls-22,.cls-30,.cls-31,.cls-32,.cls-35,.cls-4,.cls-75,.cls-76,.cls-79,.cls-8,.cls-80,.cls-81,.cls-83,.cls-84,.cls-85,.cls-87{stroke-linejoin:round}.cls-4,.cls-79,.cls-80,.cls-84{stroke-width:.82px}.cls-5{isolation:isolate}.cls-6{fill:url(#linear-gradient)}.cls-7{fill:url(#linear-gradient-2)}.cls-8{stroke:#b5f8f0;stroke-width:.96px}.cls-9{clip-path:url(#clip-path)}.cls-10{clip-path:url(#clip-path-2)}.cls-11{opacity:.38}.cls-11,.cls-12,.cls-19,.cls-25,.cls-29,.cls-36,.cls-84{mix-blend-mode:multiply}.cls-12{fill:#5b27a9}.cls-13{clip-path:url(#clip-path-3)}.cls-14{clip-path:url(#clip-path-4)}.cls-15,.cls-17,.cls-21,.cls-22,.cls-35,.cls-83,.cls-85,.cls-87{stroke:#fff}.cls-15{stroke-width:.28px}.cls-16{fill:#8d66d2}.cls-17{stroke-width:.42px;stroke-dasharray:6.87 3.96 1.87 23.74}.cls-18,.cls-86{fill-opacity:.24}.cls-20{clip-path:url(#clip-path-5)}.cls-21{stroke-width:.24px}.cls-22{stroke-width:.35px;stroke-dasharray:9.24 2.09 1.92}.cls-23{fill:#f25c90}.cls-24{clip-path:url(#clip-path-6)}.cls-26{clip-path:url(#clip-path-7)}.cls-27{clip-path:url(#clip-path-8)}.cls-28{clip-path:url(#clip-path-9)}.cls-30,.cls-31,.cls-32,.cls-75,.cls-76{stroke-width:1.38px}.cls-31{stroke-dasharray:3.33 13.8}.cls-32{stroke-dasharray:6.19 20.46 3.33 13.8}.cls-33{clip-path:url(#clip-path-10)}.cls-34{clip-path:url(#clip-path-11)}.cls-35{stroke-width:.34px}.cls-36{fill:#8161ba;opacity:.96}.cls-37{clip-path:url(#clip-path-12)}.cls-38{clip-path:url(#clip-path-13)}.cls-39{clip-path:url(#clip-path-14)}.cls-40{clip-path:url(#clip-path-15)}.cls-41{clip-path:url(#clip-path-16)}.cls-42{clip-path:url(#clip-path-17)}.cls-43{clip-path:url(#clip-path-18)}.cls-44{clip-path:url(#clip-path-19)}.cls-45{clip-path:url(#clip-path-20)}.cls-46{clip-path:url(#clip-path-21)}.cls-47{clip-path:url(#clip-path-22)}.cls-48{clip-path:url(#clip-path-23)}.cls-49{clip-path:url(#clip-path-24)}.cls-50{clip-path:url(#clip-path-25)}.cls-51{clip-path:url(#clip-path-26)}.cls-52{clip-path:url(#clip-path-27)}.cls-53{clip-path:url(#clip-path-28)}.cls-54{clip-path:url(#clip-path-29)}.cls-55{clip-path:url(#clip-path-30)}.cls-56{clip-path:url(#clip-path-31)}.cls-57{clip-path:url(#clip-path-32)}.cls-58{clip-path:url(#clip-path-33)}.cls-59{clip-path:url(#clip-path-34)}.cls-60{clip-path:url(#clip-path-35)}.cls-61{clip-path:url(#clip-path-36)}.cls-62{clip-path:url(#clip-path-37)}.cls-63{clip-path:url(#clip-path-38)}.cls-64{clip-path:url(#clip-path-39)}.cls-65{clip-path:url(#clip-path-40)}.cls-66{clip-path:url(#clip-path-41)}.cls-67{clip-path:url(#clip-path-42)}.cls-68{clip-path:url(#clip-path-43)}.cls-69{clip-path:url(#clip-path-44)}.cls-70{clip-path:url(#clip-path-45)}.cls-71{clip-path:url(#clip-path-46)}.cls-72{clip-path:url(#clip-path-47)}.cls-73{clip-path:url(#clip-path-48)}.cls-74{clip-path:url(#clip-path-49)}.cls-75{stroke-dasharray:6 19.84 3.23 13.38}.cls-76{stroke-dasharray:11.54 20.3 3.23 13.38}.cls-78{clip-path:url(#clip-path-50)}.cls-81,.cls-92{stroke:#50239f}.cls-81{stroke-width:1.22px;stroke-dasharray:20.21 11.63 5.51 69.81}.cls-82{clip-path:url(#clip-path-51)}.cls-83{stroke-width:.83px}.cls-85{stroke-width:2.13px}.cls-87{stroke-width:1.24px;stroke-dasharray:20.43 11.76 5.57 70.59}.cls-88{clip-path:url(#clip-path-52)}.cls-89{clip-path:url(#clip-path-53)}.cls-90{clip-path:url(#clip-path-54)}.cls-91{clip-path:url(#clip-path-55)}.cls-92{stroke-miterlimit:10;stroke-width:.46px}</style><linearGradient id="linear-gradient" x1="338.39" x2="338.39" y1="428.07" y2="-112.29" gradientUnits="userSpaceOnUse"><stop offset=".52" stop-color="#b2f8f0"/><stop offset=".68" stop-color="#fff"/></linearGradient><linearGradient id="linear-gradient-2" x1="174.3" x2="174.3" y1="161.58" y2="-376.51" gradientUnits="userSpaceOnUse"><stop offset=".1" stop-color="#dbfcf8"/><stop offset=".22" stop-color="#fff"/></linearGradient><clipPath id="clip-path"><polygon points="302.12 408.12 387.1 371.49 387.1 131.85 302.12 168.49 302.12 408.12" class="cls-2"/></clipPath><clipPath id="clip-path-2"><polygon points="293.33 408.12 378.31 371.49 378.31 131.85 293.33 168.49 293.33 408.12" class="cls-1"/></clipPath><clipPath id="clip-path-3"><polygon points="212.42 408.12 127.44 371.49 127.44 131.85 212.42 168.49 212.42 408.12" class="cls-2"/></clipPath><clipPath id="clip-path-4"><path d="M12.67,205.08c.23.49.45,1,.67,1.47l0,.08a5.67,5.67,0,0,0,1.23,1.72c2.77,2.65,7.86,2.36,11.38-.64,2.84-2.42,3.78-5.87,2.59-8.5h0c-.23-.51-.46-1-.7-1.54,1.19,2.63.25,6.07-2.59,8.49-3.52,3-8.61,3.29-11.38.65A5.71,5.71,0,0,1,12.67,205.08Z" class="cls-1"/></clipPath><clipPath id="clip-path-5"><path d="M55.45,196.44,53.36,198c-1,.76-3.32-.28-5.75-2.83-3.07-3.23-5.24-7.65-4.83-9.88a1.57,1.57,0,0,1,.56-1l2.1-1.52a1.55,1.55,0,0,0-.57,1c-.4,2.23,1.76,6.65,4.84,9.89C52.13,196.16,54.4,197.21,55.45,196.44Z" class="cls-1"/></clipPath><clipPath id="clip-path-6"><path d="M118.17,331.52c-2.38-8.59-16.77-36.14-26.49-44-2.18-1.77-5.49-5.44-8.68-6.79-5.44-2.3-11.54-1.57-18-.71l-6.6,24.15c2.28,1.62,19.77,1.61,21.73,3.33,9,7.92,15.26,16.93,23.17,26.95C98.4,349.4,71,374.64,71,374.71c-.07,2.33,1.66,5.53,4.44,5.6,2.47-2.13,18.69-15.84,28.43-23.88C117.33,345.3,120.86,341.25,118.17,331.52Z" class="cls-1"/></clipPath><clipPath id="clip-path-7"><path d="M99.92,395.34c.7-.48,1.42-.92,2.16-1.34-1.37-2.36-2.84-5-3.7-6.71.35.14-13.26-17.05-12.35-41.62,1.37-26.23-5.14-42.66-5.14-42.34l-16-27.71c-9.6,3.74-16.08,17.66-14.33,24.2C54.52,314,72.78,332,72.38,352.4c.1,19.74,21.42,40.35,21.09,40.06,1.88,1.26,3.77,2.41,5.68,3.43Z" class="cls-1"/></clipPath><clipPath id="clip-path-8"><path d="M26.69,282.3c-8.32-4.29-24-16-7.21-28C31,246,33.67,241.41,38.41,230.85s4.38-21,16.3-24.41,18,1.67,19.52,14.87S70,304.66,26.69,282.3Z" class="cls-1"/></clipPath><clipPath id="clip-path-9"><path d="M75.38,233.25c-7.38-2.45-24.11.78-30,4.83-5,3.42-6.72,7.31-5.72,14.38,1.36,9.52,7,14.26,6.95,20.52-.06,3.27,1.08,22.25,5.2,33.37,3.71,10,37.77-14.61,44.61-19.68a1.09,1.09,0,0,0,0-1.75c-4.78-3.53-21.95-17.26-14.83-28C87.23,248.52,75.38,233.25,75.38,233.25Z" class="cls-2"/></clipPath><clipPath id="clip-path-10"><polygon points="55.19 285.64 92.44 277.55 111.07 273.33 115.9 219.05 77.81 214.4 51.75 222.71 55.19 285.64" class="cls-3"/></clipPath><clipPath id="clip-path-11"><rect width="13.69" height="3.75" x="61.07" y="282.73" class="cls-1" rx=".59" transform="translate(28.8 -5.36) rotate(5.74)"/></clipPath><clipPath id="clip-path-12"><rect width="13.69" height="3.75" x="59.68" y="278.72" class="cls-1" rx=".59" transform="translate(28.4 -5.25) rotate(5.74)"/></clipPath><clipPath id="clip-path-13"><rect width="13.69" height="3.75" x="60.8" y="275.12" class="cls-1" rx=".59" transform="translate(28.04 -5.38) rotate(5.74)"/></clipPath><clipPath id="clip-path-14"><rect width="13.69" height="3.75" x="62.22" y="271.57" class="cls-1" rx=".59" transform="translate(27.69 -5.54) rotate(5.74)"/></clipPath><clipPath id="clip-path-15"><rect width="13.69" height="3.75" x="62.6" y="267.84" class="cls-1" rx=".59" transform="translate(27.32 -5.59) rotate(5.74)"/></clipPath><clipPath id="clip-path-16"><rect width="13.69" height="3.75" x="62.25" y="264" class="cls-1" rx=".59" transform="translate(26.94 -5.58) rotate(5.74)"/></clipPath><clipPath id="clip-path-17"><rect width="13.69" height="3.75" x="63.37" y="260.4" class="cls-1" rx=".59" transform="translate(26.58 -5.71) rotate(5.74)"/></clipPath><clipPath id="clip-path-18"><rect width="13.69" height="3.75" x="62.87" y="256.53" class="cls-1" rx=".59" transform="translate(26.19 -5.68) rotate(5.74)"/></clipPath><clipPath id="clip-path-19"><rect width="13.69" height="3.75" x="64.14" y="252.96" class="cls-1" rx=".59" transform="translate(25.84 -5.82) rotate(5.74)"/></clipPath><clipPath id="clip-path-20"><rect width="13.69" height="3.75" x="65.41" y="249.38" class="cls-1" rx=".59" transform="translate(25.49 -5.97) rotate(5.74)"/></clipPath><clipPath id="clip-path-21"><rect width="13.69" height="3.75" x="64.91" y="245.51" class="cls-1" rx=".59" transform="translate(25.1 -5.94) rotate(5.74)"/></clipPath><clipPath id="clip-path-22"><rect width="13.69" height="3.75" x="64.41" y="241.64" class="cls-1" rx=".59" transform="translate(24.71 -5.9) rotate(5.74)"/></clipPath><clipPath id="clip-path-23"><rect width="13.69" height="3.75" x="65.68" y="238.07" class="cls-1" rx=".59" transform="translate(24.36 -6.05) rotate(5.74)"/></clipPath><clipPath id="clip-path-24"><rect width="13.69" height="3.75" x="72.77" y="280.18" class="cls-1" rx=".59" transform="translate(28.61 -6.55) rotate(5.74)"/></clipPath><clipPath id="clip-path-25"><rect width="13.69" height="3.75" x="73.15" y="276.46" class="cls-1" rx=".59" transform="matrix(0.99, 0.1, -0.1, 0.99, 28.24, -6.6)"/></clipPath><clipPath id="clip-path-26"><rect width="13.69" height="3.75" x="73.53" y="272.73" class="cls-1" rx=".59" transform="translate(27.87 -6.66) rotate(5.74)"/></clipPath><clipPath id="clip-path-27"><rect width="13.69" height="3.75" x="73.92" y="269.01" class="cls-1" rx=".59" transform="translate(27.5 -6.72) rotate(5.74)"/></clipPath><clipPath id="clip-path-28"><rect width="13.69" height="3.75" x="74.3" y="265.29" class="cls-1" rx=".59" transform="translate(27.13 -6.78) rotate(5.74)"/></clipPath><clipPath id="clip-path-29"><rect width="13.69" height="3.75" x="74.69" y="261.57" class="cls-1" rx=".59" transform="translate(26.76 -6.83) rotate(5.74)"/></clipPath><clipPath id="clip-path-30"><rect width="13.69" height="3.75" x="74.63" y="257.77" class="cls-1" rx=".59" transform="translate(26.38 -6.85) rotate(5.74)"/></clipPath><clipPath id="clip-path-31"><rect width="13.69" height="3.75" x="75.45" y="254.12" class="cls-1" rx=".59" transform="translate(26.01 -6.95) rotate(5.74)"/></clipPath><clipPath id="clip-path-32"><rect width="13.69" height="3.75" x="75.84" y="250.4" class="cls-1" rx=".59" transform="translate(25.64 -7) rotate(5.74)"/></clipPath><clipPath id="clip-path-33"><rect width="13.69" height="3.75" x="75.34" y="246.53" class="cls-1" rx=".59" transform="translate(25.26 -6.97) rotate(5.74)"/></clipPath><clipPath id="clip-path-34"><rect width="13.69" height="3.75" x="76.61" y="242.96" class="cls-1" rx=".59" transform="translate(24.9 -7.12) rotate(5.74)"/></clipPath><clipPath id="clip-path-35"><rect width="13.69" height="3.75" x="77.43" y="239.31" class="cls-1" rx=".59" transform="translate(24.54 -7.22) rotate(5.74)"/></clipPath><clipPath id="clip-path-36"><rect width="13.69" height="3.75" x="77.37" y="235.51" class="cls-1" rx=".59" transform="translate(24.16 -7.23) rotate(5.74)"/></clipPath><clipPath id="clip-path-37"><rect width="13.69" height="3.75" x="77.32" y="231.72" class="cls-1" rx=".59" transform="translate(23.78 -7.25) rotate(5.74)"/></clipPath><clipPath id="clip-path-38"><rect width="13.69" height="3.75" x="78.14" y="228.07" class="cls-1" rx=".59" transform="translate(23.42 -7.35) rotate(5.74)"/></clipPath><clipPath id="clip-path-39"><rect width="13.69" height="3.75" x="78.97" y="224.42" class="cls-1" rx=".59" transform="translate(23.06 -7.45) rotate(5.74)"/></clipPath><clipPath id="clip-path-40"><rect width="13.69" height="3.75" x="78.02" y="220.48" class="cls-1" rx=".59" transform="translate(22.66 -7.37) rotate(5.74)"/></clipPath><clipPath id="clip-path-41"><rect width="13.69" height="3.75" x="83.34" y="281.27" class="cls-1" rx=".59" transform="translate(28.77 -7.6) rotate(5.74)"/></clipPath><clipPath id="clip-path-42"><rect width="13.69" height="3.75" x="83.72" y="277.55" class="cls-1" rx=".59" transform="translate(28.4 -7.66) rotate(5.74)"/></clipPath><clipPath id="clip-path-43"><rect width="13.69" height="3.75" x="84.99" y="273.97" class="cls-1" rx=".59" transform="translate(28.05 -7.8) rotate(5.74)"/></clipPath><clipPath id="clip-path-44"><rect width="13.69" height="3.75" x="84.49" y="270.1" class="cls-1" rx=".59" transform="translate(27.66 -7.77) rotate(5.74)"/></clipPath><clipPath id="clip-path-45"><rect width="13.69" height="3.75" x="83.99" y="266.23" class="cls-1" rx=".59" transform="translate(27.27 -7.74) rotate(5.74)"/></clipPath><clipPath id="clip-path-46"><rect width="13.69" height="3.75" x="85.26" y="262.66" class="cls-1" rx=".59" transform="translate(26.92 -7.88) rotate(5.74)"/></clipPath><clipPath id="clip-path-47"><rect width="13.69" height="3.75" x="86.53" y="259.08" class="cls-1" rx=".59" transform="translate(26.57 -8.03) rotate(5.74)"/></clipPath><clipPath id="clip-path-48"><rect width="13.69" height="3.75" x="86.03" y="255.21" class="cls-1" rx=".59" transform="translate(26.18 -8) rotate(5.74)"/></clipPath><clipPath id="clip-path-49"><rect width="13.69" height="3.75" x="85.97" y="251.42" class="cls-1" rx=".59" transform="translate(25.8 -8.01) rotate(5.74)"/></clipPath><clipPath id="clip-path-50"><path d="M373,271.62l6,1.63.31.09a21.46,21.46,0,0,0,8.16.59c14.77-1.73,27-17.58,27.25-35.41.23-14.39-7.37-25.67-18.06-28.6h0l-6.28-1.72c10.7,2.93,18.29,14.22,18.06,28.6-.28,17.84-12.48,33.69-27.25,35.41A21.49,21.49,0,0,1,373,271.62Z" class="cls-4"/></clipPath><clipPath id="clip-path-51"><path d="M372.79,272l6,1.65.32.09a21.72,21.72,0,0,0,8.25.61c14.94-1.72,27.3-17.73,27.61-35.76.25-14.55-7.41-26-18.22-28.95h0l-6.35-1.74c10.81,3,18.48,14.4,18.22,28.94-.31,18-12.67,34-27.6,35.77A21.79,21.79,0,0,1,372.79,272Z" class="cls-2"/></clipPath><clipPath id="clip-path-52"><path d="M436.14,254.68c8.47-10.58,13.52-24.44,14.24-29.44,1.92-13.15-4.07-19.65-16.48-19.4-10.5.2-13.8,7.51-19,15.19a34.45,34.45,0,0,0-2.75,3.79l-.32.39c-7.3,9-9.58,12.76-22.87,17.76-8.44,3.17-10.88,7.89-10.38,12.72-14.5,8.56-4.27,24.46,4,27.32,11.15,3.84,20.44,3.28,28.12.12q.11-.47.18-.93c0,.07.05-.62.05-.7s0-.34,0-.51c0-1.07,0-2.14-.12-3.2Z" class="cls-1"/></clipPath><clipPath id="clip-path-53"><path d="M428.55,365.18c1.34-2.19,14.81-25.09,19.94-33,6.83-10.53,7.56-16,3.23-21.79-3.71-5-29.57-22-40.93-25.41-1.06-.17-2.09-4.66-3.07-5a14.71,14.71,0,0,1-2.61-1.27l-.32-.1a.43.43,0,0,0,0-.07c-.87-.63-2.54-.74-4.69-.43l2.2,25.94c14.31,3.63,21.5,7.86,34.28,15.26-8.34,8.8-5.51,19.34-13.56,43.61a4.05,4.05,0,0,0,1.76,1.68A6.21,6.21,0,0,0,428.55,365.18Z" class="cls-1"/></clipPath><clipPath id="clip-path-54"><path d="M402.39,270.56c-9.9,1.14-17,10.2-17,16.74.17,14.23,12.83,35.45,7.45,54.46-3.8,14.78,4.95,33.4,8.48,40.08.78,1.47,3.61,4.48,6.24,4,.66-.13,2.74-1.15,1.52-4.38.29.22-8.72-19.87-1.85-42.59,5.33-16.7,7.21-31,8.38-38,.53-3.13.83-11.06.79-10.85Z" class="cls-1"/></clipPath><clipPath id="clip-path-55"><path d="M434.86,236.83a.7.7,0,0,0-.15-.39,18.14,18.14,0,0,0-10-6.5c-2.65-.76-7.82-.34-10.75.16-5.93,1-4.61,6.23-7.65,12.7-4.08,8.7-4.64,12.67-7.81,18.07-4.88,8.3-11.35,15.79-14,27.35-1.4,6.13,13.16,6.19,24.09,5.37s13.82-5,13.82-5,0-5.68,0-8.05c0-3.67,0-8.12,1.73-11.45a15.78,15.78,0,0,1,6.89-6.54,11.19,11.19,0,0,0,2.6-1.33c3-2.63,2-5.83,1.5-9.17C434.73,249.43,434.91,237.38,434.86,236.83Z" class="cls-2"/></clipPath></defs><title>Artboard 8 copy 4</title><g class="cls-5"><g id="Layer_10" data-name="Layer 10"><polygon points="256.26 428.07 420.52 357.11 420.52 -112.29 256.26 -41.17 256.26 428.07" class="cls-6"/><polygon points="256.43 428.07 92.16 357.11 92.16 -110.01 256.43 -38.89 256.43 428.07" class="cls-7"/><path d="M457.12,386.9c-.05.15,4.05,1.31,4,1.46-.34.92-27.62-2.89-27.95-2s30.78,10,30.4,11.06c-.63,1.73-50.79-12.13-51.41-10.4-.5,1.36,38.68,12.54,38.19,13.9-.75,2.06-60.19-16.13-60.94-14.07-.56,1.52,44.57,14.5,44,16-.71,2-57.82-15.17-58.54-13.19s54.19,17.59,53.5,19.47-54.57-15.91-55.25-14,51.76,16.78,51.1,18.6-53.51-16.15-54.18-14.3c-.55,1.5,43.08,14,42.53,15.48S363.76,402.38,363.15,404c-.34,1,25.39,8.16,25,9.12s-25.44-4.54-25.75-3.68c-.08.22,7.11,2.33,7,2.56" class="cls-8"/><path d="M117.81,389.82c-.08.22,6.51,2.11,6.42,2.33-.39,1.07-32-4.66-32.4-3.59s30.71,10,30.33,11c-.68,1.87-54.92-13.8-55.6-11.93s50.33,16.33,49.69,18.09c-.71,1.95-57.28-14.95-58-13s54.83,17.84,54.14,19.71-58-15.23-58.69-13.25c-.55,1.51,43.38,14.08,42.84,15.59-.67,1.84-53.47-15.46-54.14-13.63-.51,1.39,39,12.64,38.53,14-.62,1.71-49.83-14.66-50.45-12.95-.45,1.25,35.76,11.6,35.3,12.85S24.55,405.63,24,407c-.32.86,22.75,7.3,22.43,8.16-.25.69-20.67-2.61-20.92-1.92-.05.14,4.67,1.54,4.62,1.68" class="cls-8"/><polygon points="302.12 408.12 387.1 371.49 387.1 131.85 302.12 168.49 302.12 408.12" class="cls-2"/><g class="cls-9"><polygon points="293.33 408.12 378.31 371.49 378.31 131.85 293.33 168.49 293.33 408.12" class="cls-1"/><g class="cls-10"><polygon points="238.79 408.28 323.77 371.65 376.52 135.68 238.79 168.65 238.79 408.28" class="cls-11"/></g><polygon points="413.91 371.42 288.24 371.5 288.29 424.55 413.96 444.98 413.91 371.42" class="cls-12"/></g><polygon points="212.42 408.12 127.44 371.49 127.44 131.85 212.42 168.49 212.42 408.12" class="cls-2"/><g class="cls-13"><polygon points="221.21 408.12 136.24 371.57 136.24 131.85 221.21 168.49 221.21 408.12" class="cls-1"/><polygon points="273.96 408.28 188.98 371.65 136.24 135.68 273.96 168.65 273.96 408.28" class="cls-11"/><rect width="125.68" height="53.05" x="100.18" y="371.61" class="cls-12" transform="matrix(-1, 0, 0, -1, 326.54, 796.06)"/></g><path d="M74.18,379.94l.61,12.92a2.54,2.54,0,0,1-5,.87L66,381.38a4.19,4.19,0,0,1,8-2.48A4.73,4.73,0,0,1,74.18,379.94Z"/><g id="MUENZE"><g id="MUENZE-2" data-name="MUENZE"><path d="M12.67,205.08c.23.49.45,1,.67,1.47l0,.08a5.67,5.67,0,0,0,1.23,1.72c2.77,2.65,7.86,2.36,11.38-.64,2.84-2.42,3.78-5.87,2.59-8.5h0c-.23-.51-.46-1-.7-1.54,1.19,2.63.25,6.07-2.59,8.49-3.52,3-8.61,3.29-11.38.65A5.71,5.71,0,0,1,12.67,205.08Z" class="cls-1"/><g class="cls-14"><line x1="28.6" x2="28.22" y1="203.41" y2="202.53" class="cls-15"/><line x1="26.43" x2="25.97" y1="206.94" y2="205.93" class="cls-15"/></g><path d="M26.64,195.94c-2.76-2.64-7.85-2.35-11.37.65s-4.13,7.58-1.37,10.22,7.86,2.35,11.38-.65S29.41,198.59,26.64,195.94Z" class="cls-16"/><path d="M25.37,197c-2.21-2.11-6.28-1.88-9.1.52s-3.3,6-1.09,8.17,6.28,1.88,9.1-.52S27.58,199.15,25.37,197Z" class="cls-1"/></g><path d="M13.9,206.81c2.77,2.64,7.86,2.35,11.38-.65s4.13-7.57,1.36-10.22" class="cls-17"/></g><path d="M14.38,206.4c2.56,2.45,7.27,2.18,10.53-.59s3.82-7,1.26-9.46Z" class="cls-18"/><g id="MUENZE-3" data-name="MUENZE"><g class="cls-19"><path d="M55.45,196.44,53.36,198c-1,.76-3.32-.28-5.75-2.83-3.07-3.23-5.24-7.65-4.83-9.88a1.57,1.57,0,0,1,.56-1l2.1-1.52a1.55,1.55,0,0,0-.57,1c-.4,2.23,1.76,6.65,4.84,9.89C52.13,196.16,54.4,197.21,55.45,196.44Z" class="cls-1"/><g class="cls-20"><line x1="48.07" x2="49.34" y1="195.06" y2="194.15" class="cls-21"/><line x1="50.76" x2="52.05" y1="197.35" y2="196.41" class="cls-21"/></g></g><path d="M51.18,185.54c3.08,3.23,5.24,7.66,4.83,9.89s-3.23,1.42-6.3-1.81-5.24-7.66-4.84-9.89S48.11,182.31,51.18,185.54Z" class="cls-16"/><path d="M50.51,186.12c2.37,2.46,4.27,6,4.23,7.91s-2,1.46-4.37-1-4.26-6-4.22-7.91S48.14,183.66,50.51,186.12Z" class="cls-1"/><path d="M54.63,196.69c-1.2,0-3-1.07-4.92-3.07-3.08-3.24-5.24-7.66-4.84-9.89" class="cls-22"/></g><path d="M54.14,190.28a7.88,7.88,0,0,1,1.19,4.43c-.36,2-2.84,1.25-5.53-1.59a19.06,19.06,0,0,1-3.44-5Z" class="cls-18"/><rect width="4.9" height="6.09" x="69.87" y="375.05" class="cls-23" rx="2.02" transform="translate(325.87 88.44) rotate(52.03)"/><path d="M118.17,331.52c-2.38-8.59-16.77-36.14-26.49-44-2.18-1.77-5.49-5.44-8.68-6.79-5.44-2.3-11.54-1.57-18-.71l-6.6,24.15c2.28,1.62,19.77,1.61,21.73,3.33,9,7.92,15.26,16.93,23.17,26.95C98.4,349.4,71,374.64,71,374.71c-.07,2.33,1.66,5.53,4.44,5.6,2.47-2.13,18.69-15.84,28.43-23.88C117.33,345.3,120.86,341.25,118.17,331.52Z" class="cls-1"/><g class="cls-24"><path d="M89.54,271.35c-7.38-2.46-24.1.77-30,4.82-4.95,3.42-6.72,7.31-5.71,14.39,1.35,9.51,7,14.26,6.94,20.52-.06,3.26,10.91,44.49,15,55.6,3.32,8.95,24-16.86,31.9-27.27a6.72,6.72,0,0,0,.05-8.07c-6-8.11-18.33-26.78-12-36.3C101.39,286.61,89.54,271.35,89.54,271.35Z" class="cls-25"/></g><path d="M99.92,395.34c.7-.48,1.42-.92,2.16-1.34-1.37-2.36-2.84-5-3.7-6.71.35.14-13.26-17.05-12.35-41.62,1.37-26.23-5.14-42.66-5.14-42.34l-16-27.71c-9.6,3.74-16.08,17.66-14.33,24.2C54.52,314,72.78,332,72.38,352.4c.1,19.74,21.42,40.35,21.09,40.06,1.88,1.26,3.77,2.41,5.68,3.43Z" class="cls-1"/><g class="cls-26"><path d="M90.65,291.47C84.76,286.4,60,283.34,53,284.86c-5.89,1.28-9,4.21-10.76,11.13-2.37,9.32,1.1,15.87-1.38,21.62-1.29,3-6.82,45.3-7.23,57.15-.33,9.54,60.9,25.67,53.75,14.72-7.65-11.73-8.12-26.77-9.61-35.66-1.66-10-4-23.19.17-37.76C80.75,306.33,90.65,291.47,90.65,291.47Z" class="cls-25"/></g><path d="M26.69,282.3c-8.32-4.29-24-16-7.21-28C31,246,33.67,241.41,38.41,230.85s4.38-21,16.3-24.41,18,1.67,19.52,14.87S70,304.66,26.69,282.3Z" class="cls-1"/><g class="cls-27"><path d="M41,285.55c-8.63-3.62-25.19-14.05-9.39-27.35,10.86-9.14,13.14-14,17-24.85S51,211.08,63,207.73c4.38-1.23,8.81,1.35,11.38,14.39S85.93,304.45,41,285.55Z" class="cls-25"/></g><path d="M75.38,233.25c-7.38-2.45-24.11.78-30,4.83-5,3.42-6.72,7.31-5.72,14.38,1.36,9.52,7,14.26,6.95,20.52-.06,3.27,1.08,22.25,5.2,33.37,3.71,10,37.77-14.61,44.61-19.68a1.09,1.09,0,0,0,0-1.75c-4.78-3.53-21.95-17.26-14.83-28C87.23,248.52,75.38,233.25,75.38,233.25Z" class="cls-2"/><g class="cls-28"><path d="M62.29,312.17a13.11,13.11,0,0,1-2.39.7c-1.73.37-3.45.8-5.17,1.23a2.36,2.36,0,0,1-1.33-4.53c2-.5,2.55-1,4.57-1.48,2.89-.66,7.61-3.43,10-5.09a.51.51,0,0,0,.15-.79c-5.11-5.2-14-15.12-11.16-25.52,3.44-12.56-7-32.59-7-32.59-1-2.44-2.89-3.83-4.56-3.58-7.77,1.14-18.67,12.37-23.65,15.44s-7.09,7-6.46,14.07c.85,9.57,6.3,14.61,5.86,20.85-.22,3.26-.08,22.28,3.46,33.59,2.51,8,24.94-4.42,37.82-12.37Z" class="cls-29"/></g><path d="M51.2,217.42c-.25-5,1.35-8.45,5.54-9s8.3-.68,9.77,4,.84,5,1.38,6,1.15.55,1.11.79c-.07.4-.92.91-.92.91s1.26,4.06.25,4.52c-1.82.81-5.38.92-6,2.45s-.51,3.27,1.58,8-.69,9.49-4.65,9.3c-1.69-.08-5.64-1.44-6.53-8.61C51.84,228.18,51.33,220,51.2,217.42Z" class="cls-23"/><path d="M64.94,207.84s2.6,3.54-4.73,12.49c-3.55,4.35-5.93,6.81-10.74,9.28-5.75,3-12.33,7-11.22,2.43,1.77-7.24,4.94-17.29,9.49-20.87C55.15,205.35,62.33,203.57,64.94,207.84Z" class="cls-1"/><line x1="256.46" x2="256.46" y1="52.3" y2="55.3" class="cls-30"/><line x1="256.46" x2="256.46" y1="75.76" y2="85.99" class="cls-31"/><line x1="256.46" x2="256.46" y1="92.89" y2="392.44" class="cls-32"/><line x1="256.46" x2="256.46" y1="399.34" y2="402.34" class="cls-30"/><g class="cls-33"><rect width="13.69" height="3.75" x="61.07" y="282.73" class="cls-1" rx=".59" transform="translate(28.8 -5.36) rotate(5.74)"/><g class="cls-34"><rect width="12.07" height="3.3" x="61.88" y="282.95" class="cls-16" rx=".52" transform="translate(28.8 -5.36) rotate(5.74)"/><line x1="62.7" x2="62.43" y1="282.87" y2="285.4" class="cls-35"/><line x1="63.74" x2="63.48" y1="282.97" y2="285.5" class="cls-35"/><rect width="7.33" height="4" x="69.56" y="283.1" class="cls-36" transform="translate(29.64 -6.01) rotate(5.89)"/></g><rect width="13.69" height="3.75" x="59.68" y="278.72" class="cls-1" rx=".59" transform="translate(28.4 -5.25) rotate(5.74)"/><g class="cls-37"><rect width="12.07" height="3.3" x="60.49" y="278.94" class="cls-16" rx=".52" transform="translate(28.4 -5.25) rotate(5.74)"/><line x1="61.31" x2="61.05" y1="278.85" y2="281.38" class="cls-35"/><line x1="62.35" x2="62.09" y1="278.96" y2="281.49" class="cls-35"/><rect width="7.33" height="4" x="68.17" y="279.09" class="cls-36" transform="translate(29.22 -5.89) rotate(5.89)"/></g><rect width="13.69" height="3.75" x="60.8" y="275.12" class="cls-1" rx=".59" transform="translate(28.04 -5.38) rotate(5.74)"/><g class="cls-38"><rect width="12.07" height="3.3" x="61.61" y="275.34" class="cls-16" rx=".52" transform="matrix(0.99, 0.1, -0.1, 0.99, 28.04, -5.38)"/><line x1="62.43" x2="62.17" y1="275.25" y2="277.78" class="cls-35"/><line x1="63.47" x2="63.21" y1="275.36" y2="277.89" class="cls-35"/><rect width="7.33" height="4" x="69.29" y="275.49" class="cls-36" transform="translate(28.86 -6.02) rotate(5.89)"/></g><rect width="13.69" height="3.75" x="62.22" y="271.57" class="cls-1" rx=".59" transform="translate(27.69 -5.54) rotate(5.74)"/><g class="cls-39"><rect width="12.07" height="3.3" x="63.03" y="271.79" class="cls-16" rx=".52" transform="translate(27.69 -5.54) rotate(5.74)"/><line x1="63.85" x2="63.59" y1="271.7" y2="274.23" class="cls-35"/><line x1="64.89" x2="64.63" y1="271.81" y2="274.34" class="cls-35"/><rect width="7.33" height="4" x="70.71" y="271.93" class="cls-36" transform="translate(28.5 -6.19) rotate(5.89)"/></g><rect width="13.69" height="3.75" x="62.6" y="267.84" class="cls-1" rx=".59" transform="translate(27.32 -5.59) rotate(5.74)"/><g class="cls-40"><rect width="12.07" height="3.3" x="63.41" y="268.07" class="cls-16" rx=".52" transform="translate(27.32 -5.59) rotate(5.74)"/><line x1="64.23" x2="63.97" y1="267.98" y2="270.51" class="cls-35"/><line x1="65.27" x2="65.01" y1="268.08" y2="270.62" class="cls-35"/><rect width="7.33" height="4" x="71.09" y="268.21" class="cls-36" transform="matrix(0.99, 0.1, -0.1, 0.99, 28.12, -6.24)"/></g><rect width="13.69" height="3.75" x="62.25" y="264" class="cls-1" rx=".59" transform="translate(26.94 -5.58) rotate(5.74)"/><g class="cls-41"><rect width="12.07" height="3.3" x="63.06" y="264.22" class="cls-16" rx=".52" transform="translate(26.94 -5.58) rotate(5.74)"/><line x1="63.88" x2="63.62" y1="264.13" y2="266.66" class="cls-35"/><line x1="64.92" x2="64.66" y1="264.24" y2="266.77" class="cls-35"/><rect width="7.33" height="4" x="70.74" y="264.37" class="cls-36" transform="translate(27.73 -6.23) rotate(5.89)"/></g><rect width="13.69" height="3.75" x="63.37" y="260.4" class="cls-1" rx=".59" transform="translate(26.58 -5.71) rotate(5.74)"/><g class="cls-42"><rect width="12.07" height="3.3" x="64.18" y="260.62" class="cls-16" rx=".52" transform="translate(26.58 -5.71) rotate(5.74)"/><line x1="65" x2="64.74" y1="260.53" y2="263.06" class="cls-35"/><line x1="66.04" x2="65.78" y1="260.64" y2="263.17" class="cls-35"/><rect width="7.33" height="4" x="71.86" y="260.77" class="cls-36" transform="translate(27.36 -6.36) rotate(5.89)"/></g><rect width="13.69" height="3.75" x="62.87" y="256.53" class="cls-1" rx=".59" transform="translate(26.19 -5.68) rotate(5.74)"/><g class="cls-43"><rect width="12.07" height="3.3" x="63.68" y="256.75" class="cls-16" rx=".52" transform="translate(26.19 -5.68) rotate(5.74)"/><line x1="64.5" x2="64.24" y1="256.67" y2="259.2" class="cls-35"/><line x1="65.54" x2="65.28" y1="256.77" y2="259.3" class="cls-35"/><rect width="7.33" height="4" x="71.36" y="256.9" class="cls-36" transform="translate(26.96 -6.33) rotate(5.89)"/></g><rect width="13.69" height="3.75" x="64.14" y="252.96" class="cls-1" rx=".59" transform="translate(25.84 -5.82) rotate(5.74)"/><g class="cls-44"><rect width="12.07" height="3.3" x="64.95" y="253.18" class="cls-16" rx=".52" transform="translate(25.84 -5.82) rotate(5.74)"/><line x1="65.77" x2="65.51" y1="253.09" y2="255.62" class="cls-35"/><line x1="66.81" x2="66.55" y1="253.2" y2="255.73" class="cls-35"/><rect width="7.33" height="4" x="72.63" y="253.32" class="cls-36" transform="translate(26.6 -6.48) rotate(5.89)"/></g><rect width="13.69" height="3.75" x="65.41" y="249.38" class="cls-1" rx=".59" transform="translate(25.49 -5.97) rotate(5.74)"/><g class="cls-45"><rect width="12.07" height="3.3" x="66.22" y="249.6" class="cls-16" rx=".52" transform="translate(25.49 -5.97) rotate(5.74)"/><line x1="67.04" x2="66.78" y1="249.51" y2="252.04" class="cls-35"/><line x1="68.08" x2="67.82" y1="249.62" y2="252.15" class="cls-35"/><rect width="7.33" height="4" x="73.9" y="249.75" class="cls-36" transform="translate(26.24 -6.63) rotate(5.89)"/></g><rect width="13.69" height="3.75" x="64.91" y="245.51" class="cls-1" rx=".59" transform="translate(25.1 -5.94) rotate(5.74)"/><g class="cls-46"><rect width="12.07" height="3.3" x="65.72" y="245.73" class="cls-16" rx=".52" transform="translate(25.1 -5.94) rotate(5.74)"/><line x1="66.53" x2="66.27" y1="245.64" y2="248.18" class="cls-35"/><line x1="67.58" x2="67.32" y1="245.75" y2="248.28" class="cls-35"/><rect width="7.33" height="4" x="73.4" y="245.88" class="cls-36" transform="translate(25.84 -6.6) rotate(5.89)"/></g><rect width="13.69" height="3.75" x="64.41" y="241.64" class="cls-1" rx=".59" transform="translate(24.71 -5.9) rotate(5.74)"/><g class="cls-47"><rect width="12.07" height="3.3" x="65.22" y="241.87" class="cls-16" rx=".52" transform="translate(24.71 -5.9) rotate(5.74)"/><line x1="66.03" x2="65.77" y1="241.78" y2="244.31" class="cls-35"/><line x1="67.07" x2="66.81" y1="241.88" y2="244.42" class="cls-35"/><rect width="7.33" height="4" x="72.89" y="242.01" class="cls-36" transform="translate(25.44 -6.57) rotate(5.89)"/></g><rect width="13.69" height="3.75" x="65.68" y="238.07" class="cls-1" rx=".59" transform="translate(24.36 -6.05) rotate(5.74)"/><g class="cls-48"><rect width="12.07" height="3.3" x="66.49" y="238.29" class="cls-16" rx=".52" transform="translate(24.36 -6.05) rotate(5.74)"/><line x1="67.3" x2="67.04" y1="238.2" y2="240.73" class="cls-35"/><line x1="68.35" x2="68.08" y1="238.31" y2="240.84" class="cls-35"/><rect width="7.33" height="4" x="74.16" y="238.44" class="cls-36" transform="translate(25.08 -6.72) rotate(5.89)"/></g><rect width="13.69" height="3.75" x="72.77" y="280.18" class="cls-1" rx=".59" transform="translate(28.61 -6.55) rotate(5.74)"/><g class="cls-49"><rect width="12.07" height="3.3" x="73.58" y="280.4" class="cls-16" rx=".52" transform="translate(28.61 -6.55) rotate(5.74)"/><line x1="74.39" x2="74.13" y1="280.31" y2="282.84" class="cls-35"/><line x1="75.44" x2="75.18" y1="280.42" y2="282.95" class="cls-35"/><rect width="7.33" height="4" x="81.26" y="280.55" class="cls-36" transform="translate(29.44 -7.22) rotate(5.89)"/></g><rect width="13.69" height="3.75" x="73.15" y="276.46" class="cls-1" rx=".59" transform="matrix(0.99, 0.1, -0.1, 0.99, 28.24, -6.6)"/><g class="cls-50"><rect width="12.07" height="3.3" x="73.96" y="276.68" class="cls-16" rx=".52" transform="translate(28.24 -6.6) rotate(5.74)"/><line x1="74.78" x2="74.52" y1="276.59" y2="279.12" class="cls-35"/><line x1="75.82" x2="75.56" y1="276.7" y2="279.23" class="cls-35"/><rect width="7.33" height="4" x="81.64" y="276.82" class="cls-36" transform="matrix(0.99, 0.1, -0.1, 0.99, 29.06, -7.28)"/></g><rect width="13.69" height="3.75" x="73.53" y="272.73" class="cls-1" rx=".59" transform="translate(27.87 -6.66) rotate(5.74)"/><g class="cls-51"><rect width="12.07" height="3.3" x="74.35" y="272.95" class="cls-16" rx=".52" transform="translate(27.87 -6.66) rotate(5.74)"/><line x1="75.16" x2="74.9" y1="272.87" y2="275.4" class="cls-35"/><line x1="76.2" x2="75.94" y1="272.97" y2="275.51" class="cls-35"/><rect width="7.33" height="4" x="82.02" y="273.1" class="cls-36" transform="translate(28.68 -7.34) rotate(5.89)"/></g><rect width="13.69" height="3.75" x="73.92" y="269.01" class="cls-1" rx=".59" transform="translate(27.5 -6.72) rotate(5.74)"/><g class="cls-52"><rect width="12.07" height="3.3" x="74.73" y="269.23" class="cls-16" rx=".52" transform="translate(27.5 -6.72) rotate(5.74)"/><line x1="75.55" x2="75.29" y1="269.14" y2="271.68" class="cls-35"/><line x1="76.59" x2="76.33" y1="269.25" y2="271.78" class="cls-35"/><rect width="7.33" height="4" x="82.41" y="269.38" class="cls-36" transform="translate(28.3 -7.4) rotate(5.89)"/></g><rect width="13.69" height="3.75" x="74.3" y="265.29" class="cls-1" rx=".59" transform="translate(27.13 -6.78) rotate(5.74)"/><g class="cls-53"><rect width="12.07" height="3.3" x="75.11" y="265.51" class="cls-16" rx=".52" transform="translate(27.13 -6.78) rotate(5.74)"/><line x1="75.93" x2="75.67" y1="265.42" y2="267.95" class="cls-35"/><line x1="76.97" x2="76.71" y1="265.53" y2="268.06" class="cls-35"/><rect width="7.33" height="4" x="82.79" y="265.66" class="cls-36" transform="matrix(0.99, 0.1, -0.1, 0.99, 27.92, -7.46)"/></g><rect width="13.69" height="3.75" x="74.69" y="261.57" class="cls-1" rx=".59" transform="translate(26.76 -6.83) rotate(5.74)"/><g class="cls-54"><rect width="12.07" height="3.3" x="75.5" y="261.79" class="cls-16" rx=".52" transform="translate(26.76 -6.83) rotate(5.74)"/><line x1="76.31" x2="76.05" y1="261.7" y2="264.23" class="cls-35"/><line x1="77.36" x2="77.1" y1="261.81" y2="264.34" class="cls-35"/><rect width="7.33" height="4" x="83.18" y="261.94" class="cls-36" transform="translate(27.54 -7.52) rotate(5.89)"/></g><rect width="13.69" height="3.75" x="74.63" y="257.77" class="cls-1" rx=".59" transform="translate(26.38 -6.85) rotate(5.74)"/><g class="cls-55"><rect width="12.07" height="3.3" x="75.44" y="257.99" class="cls-16" rx=".52" transform="matrix(0.99, 0.1, -0.1, 0.99, 26.38, -6.85)"/><line x1="76.26" x2="75.99" y1="257.91" y2="260.44" class="cls-35"/><line x1="77.3" x2="77.04" y1="258.01" y2="260.54" class="cls-35"/><rect width="7.33" height="4" x="83.12" y="258.14" class="cls-36" transform="translate(27.15 -7.53) rotate(5.89)"/></g><rect width="13.69" height="3.75" x="75.45" y="254.12" class="cls-1" rx=".59" transform="translate(26.01 -6.95) rotate(5.74)"/><g class="cls-56"><rect width="12.07" height="3.3" x="76.26" y="254.34" class="cls-16" rx=".52" transform="translate(26.02 -6.95) rotate(5.74)"/><line x1="77.08" x2="76.82" y1="254.26" y2="256.79" class="cls-35"/><line x1="78.12" x2="77.86" y1="254.36" y2="256.89" class="cls-35"/><rect width="7.33" height="4" x="83.94" y="254.49" class="cls-36" transform="translate(26.78 -7.64) rotate(5.89)"/></g><rect width="13.69" height="3.75" x="75.84" y="250.4" class="cls-1" rx=".59" transform="translate(25.64 -7) rotate(5.74)"/><g class="cls-57"><rect width="12.07" height="3.3" x="76.65" y="250.62" class="cls-16" rx=".52" transform="translate(25.64 -7) rotate(5.74)"/><line x1="77.47" x2="77.21" y1="250.53" y2="253.06" class="cls-35"/><line x1="78.51" x2="78.25" y1="250.64" y2="253.17" class="cls-35"/><rect width="7.33" height="4" x="84.33" y="250.77" class="cls-36" transform="translate(26.4 -7.7) rotate(5.89)"/></g><rect width="13.69" height="3.75" x="75.34" y="246.53" class="cls-1" rx=".59" transform="translate(25.26 -6.97) rotate(5.74)"/><g class="cls-58"><rect width="12.07" height="3.3" x="76.15" y="246.75" class="cls-16" rx=".52" transform="translate(25.26 -6.97) rotate(5.74)"/><line x1="76.96" x2="76.7" y1="246.67" y2="249.2" class="cls-35"/><line x1="78.01" x2="77.74" y1="246.77" y2="249.3" class="cls-35"/><rect width="7.33" height="4" x="83.82" y="246.9" class="cls-36" transform="translate(26 -7.66) rotate(5.89)"/></g><rect width="13.69" height="3.75" x="76.61" y="242.96" class="cls-1" rx=".59" transform="translate(24.9 -7.12) rotate(5.74)"/><g class="cls-59"><rect width="12.07" height="3.3" x="77.42" y="243.18" class="cls-16" rx=".52" transform="translate(24.9 -7.12) rotate(5.74)"/><line x1="78.23" x2="77.97" y1="243.09" y2="245.62" class="cls-35"/><line x1="79.28" x2="79.02" y1="243.2" y2="245.73" class="cls-35"/><rect width="7.33" height="4" x="85.09" y="243.33" class="cls-36" transform="translate(25.64 -7.81) rotate(5.89)"/></g><rect width="13.69" height="3.75" x="77.43" y="239.31" class="cls-1" rx=".59" transform="translate(24.54 -7.22) rotate(5.74)"/><g class="cls-60"><rect width="12.07" height="3.3" x="78.24" y="239.53" class="cls-16" rx=".52" transform="translate(24.54 -7.22) rotate(5.74)"/><line x1="79.06" x2="78.8" y1="239.44" y2="241.97" class="cls-35"/><line x1="80.1" x2="79.84" y1="239.55" y2="242.08" class="cls-35"/><rect width="7.33" height="4" x="85.92" y="239.68" class="cls-36" transform="translate(25.27 -7.92) rotate(5.89)"/></g><rect width="13.69" height="3.75" x="77.37" y="235.51" class="cls-1" rx=".59" transform="translate(24.16 -7.23) rotate(5.74)"/><g class="cls-61"><rect width="12.07" height="3.3" x="78.18" y="235.73" class="cls-16" rx=".52" transform="translate(24.16 -7.23) rotate(5.74)"/><line x1="79" x2="78.74" y1="235.65" y2="238.18" class="cls-35"/><line x1="80.04" x2="79.78" y1="235.75" y2="238.28" class="cls-35"/><rect width="7.33" height="4" x="85.86" y="235.88" class="cls-36" transform="translate(24.88 -7.93) rotate(5.89)"/></g><rect width="13.69" height="3.75" x="77.32" y="231.72" class="cls-1" rx=".59" transform="translate(23.78 -7.25) rotate(5.74)"/><g class="cls-62"><rect width="12.07" height="3.3" x="78.13" y="231.94" class="cls-16" rx=".52" transform="translate(23.78 -7.25) rotate(5.74)"/><line x1="78.94" x2="78.68" y1="231.85" y2="234.38" class="cls-35"/><line x1="79.99" x2="79.72" y1="231.96" y2="234.49" class="cls-35"/><rect width="7.33" height="4" x="85.8" y="232.09" class="cls-36" transform="translate(24.49 -7.95) rotate(5.89)"/></g><rect width="13.69" height="3.75" x="78.14" y="228.07" class="cls-1" rx=".59" transform="translate(23.42 -7.35) rotate(5.74)"/><g class="cls-63"><rect width="12.07" height="3.3" x="78.95" y="228.29" class="cls-16" rx=".52" transform="translate(23.42 -7.35) rotate(5.74)"/><line x1="79.77" x2="79.51" y1="228.2" y2="230.73" class="cls-35"/><line x1="80.81" x2="80.55" y1="228.31" y2="230.84" class="cls-35"/><rect width="7.33" height="4" x="86.63" y="228.44" class="cls-36" transform="translate(24.12 -8.05) rotate(5.89)"/></g><rect width="13.69" height="3.75" x="78.97" y="224.42" class="cls-1" rx=".59" transform="translate(23.06 -7.45) rotate(5.74)"/><g class="cls-64"><rect width="12.07" height="3.3" x="79.78" y="224.64" class="cls-16" rx=".52" transform="translate(23.06 -7.45) rotate(5.74)"/><line x1="80.6" x2="80.34" y1="224.55" y2="227.08" class="cls-35"/><line x1="81.64" x2="81.38" y1="224.66" y2="227.19" class="cls-35"/><rect width="7.33" height="4" x="87.46" y="224.79" class="cls-36" transform="translate(23.75 -8.15) rotate(5.89)"/></g><rect width="13.69" height="3.75" x="78.02" y="220.48" class="cls-1" rx=".59" transform="translate(22.66 -7.37) rotate(5.74)"/><g class="cls-65"><rect width="12.07" height="3.3" x="78.83" y="220.7" class="cls-16" rx=".52" transform="translate(22.66 -7.37) rotate(5.74)"/><line x1="79.65" x2="79.39" y1="220.61" y2="223.14" class="cls-35"/><line x1="80.69" x2="80.43" y1="220.72" y2="223.25" class="cls-35"/><rect width="7.33" height="4" x="86.51" y="220.85" class="cls-36" transform="translate(23.34 -8.08) rotate(5.89)"/></g><rect width="13.69" height="3.75" x="83.34" y="281.27" class="cls-1" rx=".59" transform="translate(28.77 -7.6) rotate(5.74)"/><g class="cls-66"><rect width="12.07" height="3.3" x="84.15" y="281.49" class="cls-16" rx=".52" transform="translate(28.77 -7.6) rotate(5.74)"/><line x1="84.97" x2="84.7" y1="281.4" y2="283.93" class="cls-35"/><line x1="86.01" x2="85.75" y1="281.51" y2="284.04" class="cls-35"/><rect width="7.33" height="4" x="91.83" y="281.64" class="cls-36" transform="translate(29.61 -8.3) rotate(5.89)"/></g><rect width="13.69" height="3.75" x="83.72" y="277.55" class="cls-1" rx=".59" transform="translate(28.4 -7.66) rotate(5.74)"/><g class="cls-67"><rect width="12.07" height="3.3" x="84.53" y="277.77" class="cls-16" rx=".52" transform="translate(28.4 -7.66) rotate(5.74)"/><line x1="85.35" x2="85.09" y1="277.68" y2="280.21" class="cls-35"/><line x1="86.39" x2="86.13" y1="277.79" y2="280.32" class="cls-35"/><rect width="7.33" height="4" x="92.21" y="277.91" class="cls-36" transform="translate(29.23 -8.36) rotate(5.89)"/></g><rect width="13.69" height="3.75" x="84.99" y="273.97" class="cls-1" rx=".59" transform="translate(28.05 -7.8) rotate(5.74)"/><g class="cls-68"><rect width="12.07" height="3.3" x="85.8" y="274.19" class="cls-16" rx=".52" transform="translate(28.05 -7.8) rotate(5.74)"/><line x1="86.62" x2="86.36" y1="274.1" y2="276.63" class="cls-35"/><line x1="87.66" x2="87.4" y1="274.21" y2="276.74" class="cls-35"/><rect width="7.33" height="4" x="93.48" y="274.34" class="cls-36" transform="translate(28.87 -8.51) rotate(5.89)"/></g><rect width="13.69" height="3.75" x="84.49" y="270.1" class="cls-1" rx=".59" transform="translate(27.66 -7.77) rotate(5.74)"/><g class="cls-69"><rect width="12.07" height="3.3" x="85.3" y="270.32" class="cls-16" rx=".52" transform="translate(27.66 -7.77) rotate(5.74)"/><line x1="86.12" x2="85.86" y1="270.23" y2="272.77" class="cls-35"/><line x1="87.16" x2="86.9" y1="270.34" y2="272.87" class="cls-35"/><rect width="7.33" height="4" x="92.98" y="270.47" class="cls-36" transform="translate(28.47 -8.48) rotate(5.89)"/></g><rect width="13.69" height="3.75" x="83.99" y="266.23" class="cls-1" rx=".59" transform="translate(27.27 -7.74) rotate(5.74)"/><g class="cls-70"><rect width="12.07" height="3.3" x="84.8" y="266.46" class="cls-16" rx=".52" transform="translate(27.27 -7.74) rotate(5.74)"/><line x1="85.61" x2="85.35" y1="266.37" y2="268.9" class="cls-35"/><line x1="86.66" x2="86.4" y1="266.47" y2="269.01" class="cls-35"/><rect width="7.33" height="4" x="92.48" y="266.6" class="cls-36" transform="translate(28.07 -8.45) rotate(5.89)"/></g><rect width="13.69" height="3.75" x="85.26" y="262.66" class="cls-1" rx=".59" transform="translate(26.92 -7.88) rotate(5.74)"/><g class="cls-71"><rect width="12.07" height="3.3" x="86.07" y="262.88" class="cls-16" rx=".52" transform="translate(26.92 -7.88) rotate(5.74)"/><line x1="86.88" x2="86.62" y1="262.79" y2="265.32" class="cls-35"/><line x1="87.93" x2="87.67" y1="262.9" y2="265.43" class="cls-35"/><rect width="7.33" height="4" x="93.75" y="263.03" class="cls-36" transform="translate(27.71 -8.6) rotate(5.89)"/></g><rect width="13.69" height="3.75" x="86.53" y="259.08" class="cls-1" rx=".59" transform="translate(26.57 -8.03) rotate(5.74)"/><g class="cls-72"><rect width="12.07" height="3.3" x="87.34" y="259.3" class="cls-16" rx=".52" transform="translate(26.57 -8.03) rotate(5.74)"/><line x1="88.16" x2="87.89" y1="259.21" y2="261.75" class="cls-35"/><line x1="89.2" x2="88.94" y1="259.32" y2="261.85" class="cls-35"/><rect width="7.33" height="4" x="95.02" y="259.45" class="cls-36" transform="translate(27.35 -8.75) rotate(5.89)"/></g><rect width="13.69" height="3.75" x="86.03" y="255.21" class="cls-1" rx=".59" transform="translate(26.18 -8) rotate(5.74)"/><g class="cls-73"><rect width="12.07" height="3.3" x="86.84" y="255.43" class="cls-16" rx=".52" transform="translate(26.18 -8) rotate(5.74)"/><line x1="87.65" x2="87.39" y1="255.35" y2="257.88" class="cls-35"/><line x1="88.7" x2="88.43" y1="255.45" y2="257.99" class="cls-35"/><rect width="7.33" height="4" x="94.51" y="255.58" class="cls-36" transform="translate(26.95 -8.72) rotate(5.89)"/></g><rect width="13.69" height="3.75" x="85.97" y="251.42" class="cls-1" rx=".59" transform="translate(25.8 -8.01) rotate(5.74)"/><g class="cls-74"><rect width="12.07" height="3.3" x="86.78" y="251.64" class="cls-16" rx=".52" transform="translate(25.8 -8.01) rotate(5.74)"/><line x1="87.59" x2="87.33" y1="251.55" y2="254.08" class="cls-35"/><line x1="88.64" x2="88.37" y1="251.66" y2="254.19" class="cls-35"/><rect width="7.33" height="4" x="94.45" y="251.79" class="cls-36" transform="translate(26.56 -8.73) rotate(5.89)"/></g></g><path d="M104.14,396.25l8.94,6.06a2.28,2.28,0,0,1-1.72,4.12l-10.59-2.08a4.47,4.47,0,1,1,1.73-8.78A4.6,4.6,0,0,1,104.14,396.25Z"/><rect width="4.9" height="6.09" x="98.05" y="392.95" class="cls-23" rx="2.02" transform="translate(-188.98 107.71) rotate(-30.88)"/><path d="M93.5,392.49l2.61,2.6a7.33,7.33,0,0,0,7-.81c-4.4-6.35-7.63-11.64-7.63-11.64Z" class="cls-1"/><polygon points="101.4 272.59 60.37 272.59 60.37 279.92 100.58 276.99 101.4 272.59" class="cls-36"/><path d="M104.71,274.19a.86.86,0,0,0-1.09-.58,36.29,36.29,0,0,1-5.25,1.31c-2,.23-6.28-1.16-9.74.68-4.07.32-22.56.14-32,.54a12.16,12.16,0,0,0-5.3,1.23s.63-14.22.24-18.94-.33-18.59-6.69-17.91c-3.64.39-5.16,4.64-5.88,7.67a49.85,49.85,0,0,0-.74,15.32,128.65,128.65,0,0,0,1.54,13.27c1.79,9.94,6.45,14.41,16,11.76s32.82-8,36.46-9.27c2.44-.85,3.93.89,6.41-.24C101,278,105.57,277.2,104.71,274.19Z" class="cls-23"/><polygon points="281.27 151.84 301.6 143.06 301.6 131.21 281.27 140.01 281.27 151.84" class="cls-75"/><polygon points="395.56 201 415.88 192.23 415.88 180.38 395.56 189.18 395.56 201" class="cls-76"/><polygon points="221.2 323.96 241.52 332.74 241.52 344.59 221.2 335.79 221.2 323.96" class="cls-75"/><polygon points="161.62 112.17 181.94 120.95 181.94 132.79 161.62 124 161.62 112.17" class="cls-76"/><path d="M427.61,365.7l5.34,11a2.26,2.26,0,0,1-3.71,2.49l-8.14-9.1a4,4,0,0,1,5.9-5.27A4.46,4.46,0,0,1,427.61,365.7Z"/><path d="M409.56,384.48l6.17,9a2.55,2.55,0,0,1-3.67,3.45l-8.56-6.73a4.2,4.2,0,0,1,5.19-6.61A4.43,4.43,0,0,1,409.56,384.48Z"/><g id="MUENZE-4" data-name="MUENZE"><g id="MUENZE-5" data-name="MUENZE"><path d="M373,271.62l6,1.63.31.09a21.46,21.46,0,0,0,8.16.59c14.77-1.73,27-17.58,27.25-35.41.23-14.39-7.37-25.67-18.06-28.6h0l-6.28-1.72c10.7,2.93,18.29,14.22,18.06,28.6-.28,17.84-12.48,33.69-27.25,35.41A21.49,21.49,0,0,1,373,271.62Z" class="cls-77"/><g class="cls-78"><line x1="427.99" x2="374.86" y1="216.41" y2="209.22" class="cls-79"/><line x1="425.3" x2="373.5" y1="224.86" y2="216.95" class="cls-79"/><line x1="422.6" x2="372.14" y1="233.31" y2="224.69" class="cls-79"/><line x1="419.91" x2="370.79" y1="241.76" y2="232.43" class="cls-79"/><line x1="417.21" x2="369.43" y1="250.21" y2="240.16" class="cls-79"/><line x1="414.52" x2="368.07" y1="258.66" y2="247.9" class="cls-79"/><line x1="411.82" x2="366.71" y1="267.11" y2="255.64" class="cls-79"/><line x1="409.12" x2="365.36" y1="275.56" y2="263.37" class="cls-79"/></g><path d="M373,271.62l6,1.63.31.09a21.46,21.46,0,0,0,8.16.59c14.77-1.73,27-17.58,27.25-35.41.23-14.39-7.37-25.67-18.06-28.6h0l-6.28-1.72c10.7,2.93,18.29,14.22,18.06,28.6-.28,17.84-12.48,33.69-27.25,35.41A21.49,21.49,0,0,1,373,271.62Z" class="cls-80"/></g><path d="M381.13,272.21c14.77-1.72,27-17.57,27.25-35.41s-11.45-30.9-26.22-29.19" class="cls-81"/></g><g id="MUENZE-6" data-name="MUENZE"><g id="MUENZE-7" data-name="MUENZE"><path d="M372.79,272l6,1.65.32.09a21.72,21.72,0,0,0,8.25.61c14.94-1.72,27.3-17.73,27.61-35.76.25-14.55-7.41-26-18.22-28.95h0l-6.35-1.74c10.81,3,18.48,14.4,18.22,28.94-.31,18-12.67,34-27.6,35.77A21.79,21.79,0,0,1,372.79,272Z" class="cls-2"/><g class="cls-82"><line x1="409.19" x2="405.6" y1="219.98" y2="218.94" class="cls-83"/><line x1="413.9" x2="409.75" y1="235.26" y2="234.12" class="cls-83"/><line x1="412.52" x2="408.56" y1="248.72" y2="247.7" class="cls-83"/><line x1="406.3" x2="402.5" y1="260.73" y2="259.81" class="cls-83"/><line x1="394.76" x2="390.57" y1="271.71" y2="270.76" class="cls-83"/><line x1="411.72" x2="408.02" y1="227.13" y2="226.61" class="cls-83"/><line x1="404.47" x2="400.92" y1="214.52" y2="213.35" class="cls-83"/></g><path d="M382.18,207.24C367.24,209,354.88,225,354.57,243s11.54,31.27,26.48,29.56,27.29-17.73,27.6-35.77S397.11,205.53,382.18,207.24Z" class="cls-2"/></g></g><path d="M382.05,214.1c-11.8,1.37-21.55,14-21.78,28.3s9.16,24.7,21,23.33,21.55-14.05,21.78-28.31S393.86,212.73,382.05,214.1Z" class="cls-84"/><path d="M382.22,241.19c3.22,2,3.7,5.55,2.18,8.63s-4.52,4.62-7.74,2.62l-8.32-5.17,11.08-22.39,8.31,5.17c3.22,2,3.7,5.56,2.18,8.63s-4.47,4.51-7.69,2.51" class="cls-85"/><line x1="382.83" x2="384.85" y1="226.91" y2="222.82" class="cls-85"/><line x1="386.61" x2="388.63" y1="229.26" y2="225.17" class="cls-85"/><line x1="369.54" x2="371.57" y1="253.36" y2="249.27" class="cls-85"/><line x1="373.32" x2="375.34" y1="255.71" y2="251.62" class="cls-85"/><line x1="373.91" x2="382.22" y1="236.02" y2="241.19" class="cls-85"/><path d="M359.11,256a1.43,1.43,0,0,0-.38,1.69c.62,1.3,2.67,7.12,3.51,7.88,4.31,3.88,12.25,8.36,18.39,7.65,14-1.61,26-19.35,26.33-36.26a32.25,32.25,0,0,0-3.5-15.66,1.42,1.42,0,0,0-2.18-.43Z" class="cls-86"/><path d="M381.05,272.56c14.93-1.72,27.29-17.73,27.6-35.77s-11.54-31.26-26.47-29.55" class="cls-87"/><rect width="4.74" height="5.88" x="403.51" y="381.78" class="cls-23" rx="2.37" transform="translate(-92.31 130.64) rotate(-16.44)"/><rect width="4.74" height="5.88" x="422.85" y="361.49" class="cls-23" rx="2.37" transform="translate(212.62 -153.67) rotate(27.09)"/><path d="M410.24,221.1l-4.64-1.19a.48.48,0,0,0-.55.67,37.24,37.24,0,0,1,3.2,9.85c.8,5.36,4.69-.05,5.34-1a.46.46,0,0,0,.08-.3c-.06-.69-.47-3.42-3.14-7.81A.51.51,0,0,0,410.24,221.1Z" class="cls-86"/><path d="M420.38,253.54c-2-.14-4-.19-6-.34q-1.78-.13-3.54-.36l-.27,0-.42-.05c-.32,0-.63-.07-.95-.08h-.09l-.06.19a4.64,4.64,0,0,0-.11.51v.14c-.06,1.54.11,3.06.11,4.6,0,4,0,8,.35,12,.2,2.16.5,4.38.49,6.58a38.23,38.23,0,0,0,4.69-3.38c6.42-3.95,11.94-10.68,16.43-18.07A53.32,53.32,0,0,0,420.38,253.54Z" class="cls-1"/><path d="M436.14,254.68c8.47-10.58,13.52-24.44,14.24-29.44,1.92-13.15-4.07-19.65-16.48-19.4-10.5.2-13.8,7.51-19,15.19a34.45,34.45,0,0,0-2.75,3.79l-.32.39c-7.3,9-9.58,12.76-22.87,17.76-8.44,3.17-10.88,7.89-10.38,12.72-14.5,8.56-4.27,24.46,4,27.32,11.15,3.84,20.44,3.28,28.12.12q.11-.47.18-.93c0,.07.05-.62.05-.7s0-.34,0-.51c0-1.07,0-2.14-.12-3.2Z" class="cls-1"/><g class="cls-88"><path d="M445.1,264.61c8.46-10.58,13.51-24.44,14.24-29.44,1.92-13.15-4.08-19.65-16.49-19.4-10.49.2-13.8,7.51-19,15.19a32,32,0,0,0-2.75,3.79l-.32.39c-7.3,9-9.59,12.76-22.88,17.76-5.9,2.22-8.87,5.19-9.95,8.43a21.05,21.05,0,0,1-4.2,7.37c-5.07,5.69-4,13.71,2.89,16.1,11.14,3.84,25.35,11.42,33,8.26a7.62,7.62,0,0,0,.18-.93c0,.07.05-.62.05-.7s0-.34,0-.51a28.44,28.44,0,0,0-.12-3.2Z" class="cls-25"/></g><path d="M437.12,240.19a6.83,6.83,0,0,0-2.44-3.74c-2.48-2-8.25,7.39-13.73,12.91-7,7-16.94,17.35-16.94,17.35l-.4-.37c0,.66,0,1.32,0,2,0,2.19-.42.48-.47,2.67,0,.56,0,1.12-.05,1.68,4.15-.37,11.58-1.55,16.1-5.29C429.91,258.54,438.26,247.19,437.12,240.19Z" class="cls-23"/><path d="M428.55,365.18c1.34-2.19,14.81-25.09,19.94-33,6.83-10.53,7.56-16,3.23-21.79-3.71-5-29.57-22-40.93-25.41-1.06-.17-2.09-4.66-3.07-5a14.71,14.71,0,0,1-2.61-1.27l-.32-.1a.43.43,0,0,0,0-.07c-.87-.63-2.54-.74-4.69-.43l2.2,25.94c14.31,3.63,21.5,7.86,34.28,15.26-8.34,8.8-5.51,19.34-13.56,43.61a4.05,4.05,0,0,0,1.76,1.68A6.21,6.21,0,0,0,428.55,365.18Z" class="cls-1"/><g class="cls-89"><path d="M440.51,315.66c-6-5.09-24.85-11.7-27-21.05a43.93,43.93,0,0,1-.12-7.51c-1.81.08,1.09,2-.72,2.09-6.68.15-13.35.38-20,.49-2.93,0-5.85.06-8.78.05.2.49.4,1,.62,1.57,3.36,8.65,9.76,11.87,11,17.79.66,3.08,16.72,44.53,23,54.08,5.08,7.69,18.53-28.38,23.71-39.91A6.48,6.48,0,0,0,440.51,315.66Z" class="cls-25"/></g><path d="M402.39,270.56c-9.9,1.14-17,10.2-17,16.74.17,14.23,12.83,35.45,7.45,54.46-3.8,14.78,4.95,33.4,8.48,40.08.78,1.47,3.61,4.48,6.24,4,.66-.13,2.74-1.15,1.52-4.38.29.22-8.72-19.87-1.85-42.59,5.33-16.7,7.21-31,8.38-38,.53-3.13.83-11.06.79-10.85Z" class="cls-1"/><g class="cls-90"><path d="M397,332.84c-.92-10.71-1.52-22.42-.74-30.18.8-8,5-21.29,8.71-23.93.81-.58,5.5,7.23,5.5,7.23-5.18-4.46-26.71,1.19-35.39,1.81.36,2.66,2.78,3,3,5.67.4,4.28,1.54,8.48,2.12,12.77,1.06,7.85,1.5,15.79,2.19,23.68.35,4,.69,7.92.81,11.9.13,3.82.14,7.65.19,11.47.1,7.47.31,15.07,1.81,22.32.84,4,1.54,8.29,2.75,12.27,12.68,3.1,24.09,3.5,20.46-1.09C393.06,367.26,397.86,342.27,397,332.84Z" class="cls-25"/></g><path d="M434.86,236.83a.7.7,0,0,0-.15-.39,18.14,18.14,0,0,0-10-6.5c-2.65-.76-7.82-.34-10.75.16-5.93,1-4.61,6.23-7.65,12.7-4.08,8.7-4.64,12.67-7.81,18.07-4.88,8.3-11.35,15.79-14,27.35-1.4,6.13,13.16,6.19,24.09,5.37s13.82-5,13.82-5,0-5.68,0-8.05c0-3.67,0-8.12,1.73-11.45a15.78,15.78,0,0,1,6.89-6.54,11.19,11.19,0,0,0,2.6-1.33c3-2.63,2-5.83,1.5-9.17C434.73,249.43,434.91,237.38,434.86,236.83Z" class="cls-2"/><g class="cls-91"><path d="M429.14,231.08c-.06-.06-16-6.6-16-6.67-1.65-1.95-3.84-2.66-5.33-1.93-7.06,3.44-15.7,9.57-20.69,12.64s-7.09,7-6.46,14.07c.86,9.57,6.3,14.61,5.87,20.86-.21,3-10.21,11.23-9.31,21.76,2.79.44,6.21-2.72,8.15-.66,2.77,2.93,18.43,1.5,18.43,1.5s-10.12-12.73-5.82-22c4-8.62,12.3-14.81,15.88-20.83,3.23-5.43,4.7-11.16,3.91-15.14C416.56,228.7,429.77,231.69,429.14,231.08Z" class="cls-29"/><g class="cls-19"><path d="M417.19,260c1.76,0,3.5.2,5.25.33l2.6.25,2.59.31c.86.11,1.74.13,2.62.19a7.85,7.85,0,0,1,2.52.59,11.55,11.55,0,0,1,4.53,3.24.29.29,0,0,1,0,.41l-.08,0a11.54,11.54,0,0,1-5.52.79,7.87,7.87,0,0,1-2.51-.64c-.8-.35-1.59-.74-2.41-1l-2.44-.91-2.42-1c-1.61-.68-3.22-1.36-4.81-2.12a.24.24,0,0,1-.11-.32A.25.25,0,0,1,417.19,260Z" class="cls-2"/></g></g><path d="M434.16,215.72c3.22-3.87,6.71-5.31,10.2-2.9s6.57,5.12,4.5,9.54-2.79,4.27-3,5.31.47,1.18.28,1.34-1.29,0-1.29,0-1.83,3.84-2.88,3.49c-1.89-.63-4.58-3-6.06-2.25s-2.59,2.07-4.24,6.93-1.53,9.13-5.67,6.14c-2.36-1.7-6.76-8.86-3-13.91C427.43,223.43,432.51,217.69,434.16,215.72Z" class="cls-23"/><path d="M450.31,216.75a5.63,5.63,0,0,1-.33-1.63c0-.07-.69-.51-.69-.58-2.15-3.24-6.3-5.2-13.45-5.76-4-.32-9.63,2.11-14.77,5a.88.88,0,0,0,0,.17,12.75,12.75,0,0,1-.16,3.38,12,12,0,0,1-1.05,3.14,10.77,10.77,0,0,1-.6,1c2.08.52,4.45,1,6.54,1.6,5.22,1.44,7.94,1.07,13.51.34,7.95-1,10.37-3.36,11.1-4.62a1.44,1.44,0,0,0,.2-.78Z" class="cls-1"/><line x1="444.79" x2="452.19" y1="352.79" y2="337.85" class="cls-92"/><path d="M456,298.78s7.39,5.66,3.77,20.12" class="cls-92"/><path d="M415.64,233.57c-1.8-6.73-6.4-1.74-12.12,3.77-1.28,1.23-6.68,6.16-10.78,9.72a42.11,42.11,0,0,1-5,3.77c-5.69,3.63-15.35,10-17.29,11-3.91.27-4.41,1.82-6.26,2.7-1.31.62-2.86-1.13-4.12-2a.43.43,0,0,0-.67.46,6.52,6.52,0,0,0,6.85,4.75c2.35-.3,15.62-4.09,25.92-9.53C396.69,255.8,418.45,244,415.64,233.57Z" class="cls-23"/></g></g></svg>